PathFileType  4	(X/Y/Z) C:\Users\antoi\Documents\MyRepositories\mobilecap\ResultsAnalysis
DataRate	CameraRate	NumFrames	NumMarkers	Units	OrigDataRate	OrigDataStartFrame	OrigNumFrames
100.0	100.0	4	51	mm	100.0	75	299
Frame#	Time	r_knee			r_shank_antsup			r_ankle			r_calc			r_5meta			r_toe			L_knee			L_shank_antsup			L_ankle			L_calc			L_5meta			L_toe			r_sh2			r_sh3			r_sh4			L_sh2			L_sh3			r_thigh1			r_thigh2			r_thigh3			r_thigh4			r_thigh5			L_thigh1			L_thigh2			L_thigh3			L_thigh4			r.ASIS			r.PSIS			L.ASIS			L.PSIS			C7			R_Shoulder			L_Shoulder			R_Sternum			L_Sternum			R_humerus			R_elbow_med			R_elbow_lat			R_forearm			R_wrist_radius			R_wrist_ulna			L_humerus			L_elbow_med			L_elbow_lat			L_forearm			L_wrist_radius			L_wrist_ulna			R_HJC			L_HJC			R_HJC_reg			L_HJC_reg			
		X1	Y1	Z1	X2	Y2	Z2	X3	Y3	Z3	X4	Y4	Z4	X5	Y5	Z5	X6	Y6	Z6	X7	Y7	Z7	X8	Y8	Z8	X9	Y9	Z9	X10	Y10	Z10	X11	Y11	Z11	X12	Y12	Z12	X13	Y13	Z13	X14	Y14	Z14	X15	Y15	Z15	X16	Y16	Z16	X17	Y17	Z17	X18	Y18	Z18	X19	Y19	Z19	X20	Y20	Z20	X21	Y21	Z21	X22	Y22	Z22	X23	Y23	Z23	X24	Y24	Z24	X25	Y25	Z25	X26	Y26	Z26	X27	Y27	Z27	X28	Y28	Z28	X29	Y29	Z29	X30	Y30	Z30	X31	Y31	Z31	X32	Y32	Z32	X33	Y33	Z33	X34	Y34	Z34	X35	Y35	Z35	X36	Y36	Z36	X37	Y37	Z37	X38	Y38	Z38	X39	Y39	Z39	X40	Y40	Z40	X41	Y41	Z41	X42	Y42	Z42	X43	Y43	Z43	X44	Y44	Z44	X45	Y45	Z45	X46	Y46	Z46	X47	Y47	Z47	X48	Y48	Z48	X49	Y49	Z49	X50	Y50	Z50	X51	Y51	Z51	

75	0.74000000	-1165.37355	771.32127	-424.48570	-1141.53833	651.94069	-441.17106	-1257.50528	397.81889	-455.50947	-1306.51663	357.32064	-506.52876	-1146.55431	352.37274	-419.95117	-1110.01447	371.86534	-462.70674	-1165.09213	777.57226	-736.78942	-1135.21325	665.39024	-698.63222	-1259.58830	399.23758	-732.43944	-1305.85146	365.51727	-695.21171	-1143.75727	347.05386	-752.03855	-1103.77350	367.60135	-700.37595	-1172.87542	545.08224	-453.17136	-1197.17359	661.49630	-389.60376	-1242.77786	561.43718	-410.14566	-1183.54342	698.60067	-765.21601	-1214.94771	581.36888	-779.43751	-1129.64047	1079.78342	-421.01857	-1107.53283	973.78910	-420.83022	-1146.35086	938.25468	-379.89270	-1230.90145	1055.95361	-378.72062	-1202.56972	944.21728	-377.17844	-1149.13513	1070.55781	-754.65382	-1111.63239	935.67193	-748.07990	-1256.77225	1046.72406	-775.42278	-1218.72999	910.72896	-766.07519	-1109.62268	1202.97242	-459.79986	-1267.18634	1309.36792	-521.21743	-1116.14152	1203.60894	-703.99922	-1272.94840	1312.86769	-638.60818	-1079.54414	1723.15833	-579.00563	-1031.91996	1675.82244	-427.51538	-1031.17857	1681.65705	-735.71640	-982.46782	1632.79924	-560.64395	-980.91091	1629.49463	-602.58603	-1064.27463	1554.55609	-356.49444	-1221.94205	1415.08463	-398.84501	-1192.31451	1410.86531	-328.49324	-1205.53020	1285.16442	-303.92218	-1232.45950	1184.64289	-297.42255	-1262.38304	1198.92830	-277.53233	-1074.58197	1537.95409	-802.96617	-1220.78292	1401.89523	-749.52338	-1199.08064	1404.57941	-822.57828	-1202.14191	1307.70740	-851.27900	-1243.36676	1179.66028	-852.90179	-1265.12430	1193.13896	-875.08189	-1220.53724	1169.22117	-482.33580	-1222.85796	1165.42334	-671.66122	-1201.75888	1162.08832	-490.70608	-1209.65985	1166.88730	-651.67041	
76	0.75000000	-1162.81624	770.60482	-424.35032	-1139.50448	651.14059	-441.34438	-1257.41645	397.83906	-455.56565	-1306.52260	357.29736	-506.54143	-1146.53695	352.30413	-420.05288	-1109.99089	371.80128	-462.68386	-1162.67112	776.93711	-736.51847	-1133.15796	664.57390	-698.45924	-1259.38631	399.31952	-732.31166	-1305.87279	365.47090	-695.04285	-1143.75681	347.07179	-752.02480	-1103.76973	367.50734	-700.26413	-1171.66898	544.47233	-453.22107	-1195.01432	660.98932	-389.48126	-1241.07302	560.68651	-410.11295	-1181.32563	698.14643	-764.99357	-1213.68326	581.26722	-779.02665	-1129.26392	1079.21508	-420.58381	-1106.42062	973.24796	-420.62478	-1144.83168	937.36500	-379.51984	-1230.39352	1054.55100	-378.45581	-1201.30298	942.90754	-377.02284	-1149.09884	1069.88785	-754.59822	-1110.50027	935.31479	-748.06544	-1256.64272	1045.22600	-775.04613	-1217.46544	909.61309	-765.69785	-1109.27815	1200.80888	-459.81649	-1265.93071	1308.72944	-520.96868	-1116.16132	1201.75063	-703.40126	-1271.91279	1312.21250	-638.10916	-1073.63031	1720.31651	-578.53632	-1025.93156	1672.46402	-427.16956	-1025.42013	1678.35593	-735.29166	-977.28521	1629.06703	-560.57474	-975.57292	1625.72252	-602.03258	-1059.68410	1551.58211	-356.10543	-1219.05730	1413.89284	-398.59450	-1189.28455	1409.20848	-328.27664	-1204.32077	1283.85845	-303.66441	-1232.77816	1183.83444	-297.00181	-1262.40390	1198.49625	-277.07557	-1070.26939	1535.13759	-802.54261	-1217.79641	1400.45398	-749.04175	-1196.09909	1402.95432	-821.98284	-1200.09251	1306.09655	-850.57000	-1242.79329	1178.40959	-852.15700	-1264.48954	1191.99587	-874.70439	-1220.54549	1168.11764	-482.00018	-1223.11404	1164.40598	-671.32413	-1201.69365	1161.16021	-490.38957	-1209.89264	1165.93408	-650.94098	
77	0.76000000	-1160.16601	769.79180	-424.28465	-1137.45640	650.29663	-441.36939	-1257.25424	397.85118	-455.70212	-1306.52293	357.28813	-506.53557	-1146.50908	352.27730	-420.08304	-1109.96550	371.71442	-462.68059	-1160.06369	776.40735	-736.15575	-1131.02568	663.68186	-698.30714	-1259.18426	399.36340	-732.03450	-1305.94292	365.32469	-694.59767	-1143.76092	347.12160	-752.02217	-1103.78394	367.38451	-700.17065	-1170.42431	543.80875	-453.39402	-1192.80683	660.34912	-389.46816	-1239.66272	560.69912	-409.97575	-1179.02051	697.59715	-764.59377	-1212.30049	580.83412	-778.57905	-1128.89210	1078.44493	-420.28622	-1105.28010	972.84046	-420.19905	-1143.41936	936.60671	-379.14043	-1229.80335	1053.08309	-378.14037	-1199.82815	941.61752	-376.78282	-1148.96742	1069.04661	-754.39197	-1109.17476	935.01395	-748.02496	-1256.45970	1043.71380	-774.71379	-1216.03961	908.40893	-765.46161	-1108.92075	1198.52290	-459.71245	-1264.60448	1307.97771	-520.61507	-1116.16078	1199.61731	-703.01936	-1270.78523	1311.51947	-637.68363	-1067.64679	1717.20362	-578.24792	-1019.85852	1668.97709	-426.81934	-1019.61476	1674.87591	-734.78357	-971.92182	1625.09443	-560.50075	-970.15960	1621.77038	-601.76882	-1054.98155	1548.31637	-355.80721	-1215.76626	1412.52276	-398.27614	-1186.06828	1407.26746	-328.06927	-1202.87433	1282.29354	-303.39149	-1232.88897	1182.76945	-296.68902	-1262.15856	1197.87957	-276.64642	-1065.84452	1532.11794	-802.19851	-1214.57828	1398.70144	-748.55595	-1192.93886	1401.05506	-821.44935	-1197.85815	1304.39692	-850.14770	-1241.84326	1177.02835	-851.75911	-1263.43256	1190.67564	-874.00701	-1220.54765	1166.93079	-481.65125	-1223.40285	1163.26076	-670.97193	-1201.68450	1159.90194	-490.05433	-1210.15079	1164.75329	-650.41305	
78	0.77000000	-1157.50068	768.90681	-424.25661	-1135.38757	649.31057	-441.35539	-1257.07805	397.61517	-456.19184	-1306.53223	357.30269	-506.55592	-1146.51623	352.27641	-420.14041	-1109.94057	371.64956	-462.73102	-1157.57154	775.77114	-735.96261	-1128.79243	662.72122	-698.06732	-1259.01533	399.41311	-731.78738	-1306.02371	365.14259	-694.09206	-1143.76733	347.15398	-752.02258	-1103.79227	367.28472	-700.12499	-1169.12327	543.12611	-453.65686	-1190.55635	659.67104	-389.62067	-1238.48449	561.18318	-409.96126	-1176.56773	696.86574	-764.02399	-1210.75715	580.17115	-778.38184	-1128.42735	1077.60218	-419.94140	-1104.08898	972.50793	-419.48565	-1142.00318	935.74146	-378.84946	-1229.14830	1051.61912	-377.75580	-1198.17007	940.44072	-376.39049	-1148.75222	1068.15692	-754.17282	-1107.70394	934.67248	-748.00029	-1256.12846	1042.04026	-774.34505	-1214.46156	907.13378	-765.37976	-1108.55994	1196.12366	-459.58848	-1263.11324	1307.15242	-520.21754	-1116.16598	1197.25096	-702.80584	-1269.52420	1310.77035	-637.34533	-1061.63223	1713.86633	-577.97673	-1013.71519	1665.28520	-426.42146	-1013.76863	1671.18974	-734.35882	-965.79063	1620.52512	-559.69428	-964.69342	1617.61385	-601.57249	-1050.12239	1544.77208	-355.65238	-1212.20931	1410.91515	-398.00172	-1182.66881	1405.12649	-327.86187	-1201.18461	1280.37976	-303.26522	-1232.71219	1181.38593	-296.44160	-1261.65975	1197.05615	-276.19834	-1061.36518	1528.82620	-801.74944	-1211.39057	1396.73628	-748.15363	-1189.53303	1398.90340	-820.92279	-1195.42860	1302.36284	-849.87366	-1240.36777	1175.37004	-851.76818	-1261.92337	1189.32591	-873.25853	-1220.52695	1165.68867	-481.31562	-1223.72232	1162.01089	-670.63071	-1201.68970	1158.47355	-489.71374	-1210.46284	1163.42474	-650.00102	
